<svg xmlns:inkscape="http://www.inkscape.org/namespaces/inkscape" xmlns:sodipodi="http://sodipodi.sourceforge.net/DTD/sodipodi-0.dtd" xmlns="http://www.w3.org/2000/svg" xmlns:svg="http://www.w3.org/2000/svg" version="1.1" id="svg3204" inkscape:version="1.2.1 (9c6d41e410, 2022-07-14)" sodipodi:docname="INKSCAPE SHERBY RACING logo final.svg" viewBox="66.15 66.15 445.21 320.76">
  <sodipodi:namedview id="namedview3206" pagecolor="#ffffff" bordercolor="#000000" borderopacity="0.25" inkscape:showpageshadow="2" inkscape:pageopacity="0.0" inkscape:pagecheckerboard="0" inkscape:deskcolor="#d1d1d1" inkscape:document-units="px" showgrid="false" showborder="true" inkscape:zoom="0.31723122" inkscape:cx="887.36538" inkscape:cy="843.23353" inkscape:window-width="1536" inkscape:window-height="890" inkscape:window-x="-6" inkscape:window-y="-6" inkscape:window-maximized="1" inkscape:current-layer="layer1"/>
  <defs id="defs3201">
    <clipPath clipPathUnits="userSpaceOnUse" id="clipPath4954">
      <path id="lpe_path-effect4958" style="fill:#067d00;fill-opacity:1;stroke:#ffffff;stroke-width:1.425;stroke-linejoin:round" class="powerclip" d="M -157.29509,954.25913 H 179.7565 v 137.78947 h -337.05159 z m -23.02847,135.68057 v 138.1511 h 368.64538 v -138.1511 z"/>
    </clipPath>
    <inkscape:path-effect effect="powerclip" id="path-effect4958" is_visible="true" lpeversion="1" inverse="true" flatten="false" hide_clip="false" message="Use fill-rule evenodd on &lt;b&gt;fill and stroke&lt;/b&gt; dialog if no flatten result after convert clip to paths."/>
    <clipPath clipPathUnits="userSpaceOnUse" id="clipPath4954-8">
      <rect style="display:none;fill:#067d00;fill-opacity:1;stroke:#ffffff;stroke-width:1.425;stroke-linejoin:round" id="rect4956-7" width="368.64539" height="138.15106" x="-180.32356" y="1089.9397" ry="0" d="m -180.32356,1089.9397 h 368.64538 v 138.1511 h -368.64538 z"/>
      <path id="lpe_path-effect4958-0" style="fill:#067d00;fill-opacity:1;stroke:#ffffff;stroke-width:1.425;stroke-linejoin:round" class="powerclip" d="M -157.29509,954.25913 H 179.7565 v 137.78947 h -337.05159 z m -23.02847,135.68057 v 138.1511 h 368.64538 v -138.1511 z"/>
    </clipPath>
    <inkscape:path-effect effect="powerclip" id="path-effect4958-2" is_visible="true" lpeversion="1" inverse="true" flatten="false" hide_clip="false" message="Use fill-rule evenodd on &lt;b&gt;fill and stroke&lt;/b&gt; dialog if no flatten result after convert clip to paths."/>
    <clipPath clipPathUnits="userSpaceOnUse" id="clipath_lpe_path-effect4958-2">
      <path id="lpe_path-effect4958-2" style="fill:#067d00;fill-opacity:1;stroke:#ffffff;stroke-width:1.425;stroke-linejoin:round" class="powerclip" d="M -157.29509,954.25913 H 179.7565 v 137.78947 h -337.05159 z m -23.02847,135.68057 v 138.1511 h 368.64538 v -138.1511 z"/>
    </clipPath>
  </defs>
  <g inkscape:label="Layer 1" inkscape:groupmode="layer" id="layer1">
    <g id="g6732">
      <g id="g10548">
        <path style="fill:#ffffff;stroke-width:1.071;fill-opacity:1" d="m 81.241021,72.26411 -11.669983,22.891118 3.590764,27.379572 15.260743,11.22113 32.765715,5.83499 35.90763,-11.22113 7.18153,16.60728 103.68329,13.46536 43.47243,-18.04207 30.4988,-7.68837 13.40738,2.00719 5.97366,-1.11706 2.30224,-2.4157 -0.39085,-4.68514 -3.5025,-3.06122 -30.31725,-25.722885 -135.5034,19.880325 -41.74263,-14.36306 -51.61722,0.44885 z" id="path5441" sodipodi:nodetypes="cccccccccccccccccccc"/>
        <g id="g5502" transform="matrix(0.97635619,0,0,0.97635619,1.5639394,1.5639393)">
          <path style="fill:#ffffff;stroke-width:1.071" d="m 429.09622,79.894482 -47.12878,41.742628 18.85151,12.11882 14.36304,15.70959 3.14193,13.91421 -8.52805,8.07922 13.46536,10.32344 7.18153,2.69307 39.49838,-37.25416 -18.40265,-16.60729 -4.0396,-7.63037 9.87459,-9.42575 -8.52807,-17.504973 z" id="path5497"/>
          <path style="fill:#fcc51f;fill-opacity:1;stroke-width:4.16312" d="m 81.070709,72.861376 c -5.981106,48.371144 40.845331,49.522884 82.838611,38.856974 0.88116,-0.22381 1.99577,-0.42832 2.09565,-0.40474 0.56351,1.62636 -2.30723,5.68798 -3.32175,7.60123 l -3.11892,20.78942 9.20651,16.64256 -9.91471,29.39001 14.51797,-5.31143 31.8687,-28.68185 4.77351,-18.52893 c 7.27903,2.8643 14.11155,5.9072 23.55423,7.90604 l -23.37038,30.45232 -24.78676,17.70483 0.35407,6.72783 21.5999,-7.79013 43.2178,-36.75436 c 11.27842,-0.18699 20.53831,-2.50353 30.38502,-5.19601 -5.69842,-3.3658 -14.46251,-5.96253 -16.10829,-11.41622 9.23607,-0.81139 17.55243,-1.74928 26.07231,-4.35114 9.06522,-3.21635 19.56033,-3.75356 28.52953,-4.52058 l -7.99195,-4.33187 c 5.27101,-1.24366 10.54205,-2.12084 15.81307,-1.58687 13.00044,1.48226 16.73166,3.72133 25.71142,7.51784 2.19049,1.00332 6.83438,3.92762 9.3802,3.86497 2.98764,-0.67451 4.46645,-3.08618 4.93135,-4.09159 l -28.21649,-26.59607 -1.55942,-13.203852 -0.91926,-0.959995 -5.66553,3.186885 -4.60325,4.957326 -9.56061,-4.603247 -7.43605,1.062283 -5.66556,11.33109 -29.7441,0.35413 -7.50785,-2.60145 c -8.96108,-2.624723 -20.93013,-6.270532 -29.62175,-9.703666 l -32.62745,-2.566989 -25.14085,4.957362 -56.6555,9.206523 -26.203143,-13.101564 z" id="path2116" sodipodi:nodetypes="csccccccccccccccccccccccccccccccccccccccc"/>
          <path id="path5305" style="fill:#333333;stroke-width:1.34018" d="m 82.474033,66.145831 c -0.176587,-0.0024 -0.694519,0.321187 -1.151351,0.718303 -8.249673,10.101195 -11.805148,19.6579 -14.807364,35.397326 -0.65673,5.36333 -0.437959,10.28908 0.655774,14.76964 0.902559,3.6736 3.244491,8.58139 6.362402,12.04009 4.536495,5.66276 9.639086,8.27786 16.967439,10.97194 5.475326,1.80434 9.377593,2.43561 16.213997,2.62309 4.88859,0.13409 11.78061,-0.19736 14.76912,-0.71055 0.97123,-0.16673 2.63275,-0.45034 3.69228,-0.62993 1.05953,-0.1796 3.01021,-0.57248 4.33462,-0.87282 6.36206,-1.43677 12.75201,-3.32853 19.10375,-5.92832 1.83891,-0.78537 4.6541,-1.60093 5.52731,-1.60093 0.92309,0 1.00147,0.0922 1.16375,1.36477 0.23053,1.80774 0.72394,4.30894 1.12396,5.69888 0.90009,3.12753 1.16792,3.86586 2.16576,5.97224 1.07732,2.27409 3.92626,6.49875 5.75159,8.52868 1.48341,1.64962 1.86535,2.60029 1.64228,4.08864 -1.41084,9.41185 -6.78192,16.40363 -13.02608,24.18612 -3.91096,4.25839 -3.89795,4.20255 -1.68517,7.26674 2.90842,4.02734 6.23531,9.95179 7.1205,12.67984 0.68436,2.10905 0.25525,2.28158 -7.69721,3.10214 -7.27536,0.75067 -19.02478,1.72334 -25.20363,2.08618 -2.13436,0.12535 -5.8908,0.43368 -13.80587,1.13326 -11.816397,1.04458 -16.101152,1.41508 -31.44046,2.71922 -9.345506,0.79459 -13.750071,1.49683 -13.814144,1.56114 -0.06407,0.0643 -0.01724,1.86946 0.10387,4.01164 l 0.220142,3.89434 H 260.07404 462.3914 v -2.52388 c 0.004,-1.64962 -0.0666,-3.72476 0.21601,-5.51284 l -50.12046,-2.02468 c -69.42752,-2.80414 -106.40109,-5.28 -116.01927,-5.84306 -21.32813,-1.24832 -43.28263,-2.22819 -57.78355,-2.57865 l -7.85688,-0.18965 -3.98787,-4.06849 c -3.91595,-4.01217 -10.61184,-11.35411 -10.65568,-15.75666 0.78526,-1.46723 9.74173,-8.83362 15.26728,-12.55686 3.46962,-2.38912 15.09535,-11.27657 19.64531,-7.17837 0.0846,0.22049 0.004,1.6309 -0.18035,3.13418 -0.27054,2.21183 -0.24277,3.08484 0.14573,4.57646 0.26406,1.01375 0.63555,2.03028 0.82527,2.25878 0.18973,0.22862 0.26115,0.63466 0.15865,0.90175 -0.15138,0.39463 -0.87829,0.48576 -3.87005,0.48576 -2.50313,-0.0121 -5.76853,-0.57373 -8.57829,-1.62316 -0.28729,-0.14295 -1.03052,-0.35479 -1.65157,-0.47128 -1.60951,-0.30192 -3.49836,0.76789 -7.03368,3.98425 -1.72937,1.57329 -1.89008,1.96267 -0.80977,1.96267 10.38621,0.43855 21.47397,7.8059 32.97421,2.62671 2.73765,-2.04813 2.72022,-2.01417 2.21847,-4.28656 -0.27444,-1.24286 -0.44434,-3.84087 -0.43718,-6.68796 0.0144,-5.72101 0.32436,-6.58234 2.46393,-6.84506 3.57172,-0.4388 8.88513,-1.26172 11.64735,-1.80403 4.97386,-0.99251 10.01729,-2.53808 14.79134,-4.67516 1.33806,-0.61816 2.50544,-1.12397 2.59364,-1.12397 0.0882,0 2.25412,-1.01122 4.81366,-2.2474 2.55955,-1.23607 4.71556,-2.24741 4.79093,-2.24741 0.0754,0 2.84719,-1.30912 6.15931,-2.90887 3.31212,-1.59974 6.59966,-3.17443 7.30601,-3.49953 0.70636,-0.32509 2.22355,-1.02223 3.37137,-1.54925 2.17143,-0.99713 7.51072,-2.91956 9.87279,-3.55483 3.13563,-0.84337 3.87886,-0.98491 6.0203,-1.14825 1.23612,-0.0947 3.11438,-0.26898 4.17391,-0.38912 1.83944,-0.20811 1.90473,-0.19142 1.44487,0.36897 -0.26488,0.32291 -8.57246,7.44194 -18.46141,15.82074 -9.88894,8.3788 -18.02527,15.35357 -18.08055,15.49931 -0.0553,0.14562 0.87536,1.41814 2.06809,2.82774 l 2.16835,2.56315 2.90886,-2.49029 c 1.59966,-1.36979 11.47783,-9.7383 21.95164,-18.5968 l 19.04328,-16.10702 4.71599,-0.0134 c 8.2774,-0.0243 9.72121,-0.77361 11.89901,-6.18154 0.59739,-3.03154 0.0165,-3.90634 -2.20658,-5.80946 0,-0.0631 1.3321,-1.25298 2.96002,-2.64377 1.62795,-1.39078 3.75891,-3.34293 4.73563,-4.33823 0.97677,-0.99543 12.03387,-11.0205 24.57163,-22.278228 12.53775,-11.257715 23.29991,-20.955007 23.91533,-21.549072 l 1.1188,-1.080037 -1.44022,-1.432471 -1.43971,-1.431954 -28.60135,23.827486 c -15.73063,13.105176 -29.36392,24.513686 -30.29583,25.352456 -0.93193,0.83877 -1.85919,1.52032 -2.06085,1.52032 -0.64596,-0.0121 -7.06989,-5.91489 -18.63711,-17.13435 -2.57304,-2.48808 -5.22466,-5.023471 -8.38657,-6.945315 -2.15123,-1.106414 -2.53996,-1.907418 -2.4722,-5.09633 0.0976,-4.593773 1.38711,-5.905492 2.8758,-2.92592 l 0.72192,1.444357 0.003,-2.384868 c 0.002,-1.31187 -0.16468,-2.90148 -0.37001,-3.532084 -0.70393,-2.161848 -1.0636,-2.902073 -1.48931,-3.065445 -0.74898,-0.287404 -3.98209,2.218141 -7.18664,5.569685 -1.90186,1.989108 -3.35766,3.252515 -3.74809,3.252515 -0.58102,0 -2.02663,-0.99512 -3.25613,-2.241207 -0.26489,-0.268449 -1.3486,-1.207196 -2.40813,-2.086178 -1.05953,-0.878993 -1.9984,-1.691079 -2.08669,-1.80454 -0.0883,-0.113462 -1.28318,-0.937128 -2.65514,-1.83038 -2.65145,-1.726314 -4.45878,-2.484515 -5.22345,-2.19108 -0.97974,0.375964 -2.88493,5.457606 -3.80649,10.153385 -0.29457,1.500993 -0.67587,3.344908 -0.84697,4.097941 -0.17111,0.753032 -0.31109,1.630921 -0.31109,1.950785 0,0.79127 -1.23519,1.8619 -2.40761,2.086178 -6.49047,1.247891 -12.17404,1.809691 -19.74608,1.650541 -9.51395,0.006 -16.10716,-0.3534 -17.81907,-0.972547 -1.34716,-0.487217 0.93656,1.339187 2.40761,1.925467 0.79465,0.31671 1.73403,0.69382 2.08721,0.83767 9.18307,3.64412 17.25096,4.00636 27.13013,4.11448 l 10.75593,0.20257 1.98902,1.36426 c 1.09399,0.7505 2.28273,1.36477 2.64119,1.36477 0.55816,0 0.62545,-0.15018 0.47128,-1.04386 -0.099,-0.57391 -0.31341,-1.46689 -0.47697,-1.98489 -0.16356,-0.51799 -0.50786,-2.68541 -0.76481,-4.81625 -0.37945,-3.146581 -0.39383,-4.236071 -0.0765,-5.800675 0.36075,-1.778531 0.46217,-1.934505 1.32085,-2.032434 0.79168,-0.09028 1.33347,0.242232 3.46542,2.408122 2.79737,2.841926 3.89584,5.067257 4.43384,6.291607 0.47103,1.07196 0.71041,1.76697 1.89807,1.59267 0.87517,-0.12845 0.99167,-0.26833 0.99167,-1.19011 0,-0.59851 -0.66425,-2.39955 -1.55597,-4.217833 -0.85592,-1.745281 -1.80834,-3.707642 -2.11615,-4.360974 -0.54361,-1.153788 -0.47647,-1.862418 0.17673,-1.862418 0.63295,0 4.02755,2.580647 6.54534,4.975923 3.20807,3.051972 3.55727,3.261782 4.01164,2.412773 0.23891,-0.446408 0.67177,-0.645956 1.40095,-0.645956 2.59413,0 7.1226,3.227395 14.65233,10.443295 2.03194,1.94724 4.84495,4.61999 6.2513,5.93968 3.97139,3.73756 7.98156,7.70307 12.91032,10.62054 2.54868,1.60012 4.786,1.70864 4.07159,4.52479 -0.69843,2.75305 -2.06803,4.02816 -6.56756,4.33566 -7.52347,0.18129 -15.23399,-7.76869 -24.47137,-6.71174 l 1.17202,1.23662 c 2.14067,2.25879 1.5777,2.88912 -3.15692,3.53518 -12.17994,2.0542 -25.38719,8.91819 -38.36768,13.58832 -4.90878,1.82922 -12.23025,4.83302 -18.62212,5.94227 -7.58015,1.34589 -16.71902,1.28506 -23.27764,-0.15451 -0.88295,-0.1938 -2.03856,-0.42423 -2.56832,-0.5116 -0.52977,-0.0874 -1.47619,-0.31161 -2.10323,-0.49764 -1.11295,-0.33007 -1.26626,-0.25615 -6.42183,3.1011 -2.90472,1.89159 -6.00346,3.97715 -6.88641,4.63486 -0.88294,0.65771 -2.76119,2.04554 -4.1739,3.08405 -1.41271,1.03839 -2.64074,1.97236 -2.72903,2.07429 -0.0883,0.10315 -0.73632,0.61228 -1.44022,1.13275 -0.7039,0.52047 -1.64329,1.25564 -2.08722,1.63401 -0.44392,0.37836 -2.39452,2.03804 -4.33462,3.68814 -3.46262,2.94491 -11.0819,10.35153 -14.75517,14.34331 -1.86825,2.0303 -2.15457,2.18781 -5.95829,3.27267 -2.08813,0.59559 -8.04853,2.55572 -8.98963,2.95641 -0.44147,0.18785 -1.0917,0.44888 -1.44487,0.57981 -0.35318,0.13094 -1.04655,0.40028 -1.54048,0.59893 -1.40168,0.56343 -1.83089,0.45407 -1.83089,-0.46819 0,-1.65739 6.55105,-7.37847 10.81587,-9.44542 2.45758,-1.19055 2.80812,-1.19384 3.96772,-0.0341 0.65774,0.65771 1.01328,0.82244 1.21956,0.56275 0.16012,-0.20144 1.70671,-2.46144 3.437,-5.02191 6.28968,-9.30761 12.15211,-15.78038 19.90835,-21.97902 2.39116,-1.91089 4.48724,-4.12498 5.69991,-6.02082 0.59807,-0.935 1.68462,-2.64452 2.41484,-3.79977 0.73022,-1.15537 1.58848,-2.38331 1.90686,-2.72903 0.31837,-0.34573 0.81532,-0.97016 1.10432,-1.387 0.289,-0.41683 2.23449,-2.56802 4.32325,-4.78058 2.08876,-2.21281 3.91332,-4.21965 4.05454,-4.45968 0.29689,-0.50445 -0.1601,-0.57407 -0.98392,-0.14934 -0.30664,0.15811 -1.98024,0.9557 -3.71967,1.7725 -3.10934,1.46019 -5.20777,2.74412 -7.11171,4.35115 -1.28243,1.08244 -6.72271,6.55815 -8.39897,8.45375 -1.03785,1.17357 -1.55209,1.50999 -2.30891,1.50999 -0.5355,0 -4.59108,-1.26193 -6.28695,-1.80558 -1.20165,-0.37606 -6.07176,-2.02181 -6.0849,-2.54713 -0.3294,-0.69727 -0.20018,-1.98504 -0.20309,-3.78065 -0.0422,-6.80114 -0.59265,-14.06727 -4.10517,-19.56573 l -0.59893,-0.88935 -0.36639,1.21078 c -0.20166,0.66584 -0.43266,2.36595 -0.51315,3.77858 -0.78789,12.822 -4.34928,21.99835 -12.65349,33.32096 -6.3831,8.19508 -19.22605,18.71438 -28.71452,22.06325 -1.41886,0 -1.27207,-0.47315 1.58336,-5.13612 2.86162,-4.74232 5.21883,-10.08068 7.16597,-14.98719 0,-0.26345 0.3889,-0.42478 1.02423,-0.42478 2.4841,0 7.32358,-1.18233 7.32358,-1.78956 0,-0.42921 -1.29978,-1.49362 -4.18269,-3.42356 -5.13864,-3.45385 -9.61174,-8.18581 -12.92686,-13.79761 -3.13094,-6.69569 -3.93627,-11.89987 -3.4463,-15.3696 0.36331,-3.61585 1.93488,-7.5138 1.32034,-7.83829 -1.25657,-0.36635 -9.90451,3.67447 -15.6006,5.62188 -6.18216,2.73315 -12.24074,4.22089 -19.42466,6.64714 -2.76172,0.87784 -7.88171,2.04895 -10.43502,2.38642 -9.89575,1.21968 -19.261651,0.13554 -26.488302,-6.82129 -2.268248,-2.39155 -3.209587,-3.72129 -4.527889,-6.39134 -0.921635,-1.87836 -2.69835,-9.04775 -0.294556,-8.29097 1.457126,0.40797 10.697853,0.91426 11.056173,0.55811 0.103996,-0.10339 -0.545649,-1.62058 -1.44384,-3.37137 -0.89819,-1.75079 -2.172102,-4.79751 -2.830835,-6.77065 -0.737087,-2.207837 -1.326836,-3.504487 -1.533239,-3.371367 -0.184451,0.118922 -0.518531,0.794322 -0.742591,1.500684 -0.498648,1.566643 -0.809406,3.357863 -1.601452,4.808493 -0.552406,0.49991 -0.768775,0.52165 -1.685169,0.1695 -1.585961,-0.61092 -3.675443,-2.13384 -6.109187,-2.8329 -1.074475,0.1526 -2.286711,2.93401 -2.958476,6.78873 -0.313044,1.78819 -0.3503,10.20352 -1.711523,9.51001 -7.17583,-8.07225 -2.165181,-31.754175 3.81372,-43.166355 1.704278,2.539233 5.267983,10.953173 11.962577,17.041337 14.739889,13.889148 31.600859,14.148698 51.904329,12.723768 4.88222,-0.58415 8.97822,-1.29902 15.73237,-2.7466 3.53974,-0.75865 6.95502,-1.19348 7.55768,-0.96221 0.41138,0.15786 0.48456,0.45882 0.32969,1.36064 -0.0877,0.51024 -0.86531,5.45057 -0.44545,5.61516 0.57928,-0.3241 2.68983,-1.34744 3.49694,-1.79679 0.80712,-0.44936 2.39673,-1.38043 3.53209,-2.06913 15.45167,-9.069567 31.38896,-12.579728 49.90341,-12.767176 5.29765,-0.09732 10.39057,-0.178441 11.31766,-0.180868 0.92708,-0.0024 1.68568,-0.11673 1.68568,-0.254764 0,-0.138035 -0.68618,-0.439278 -1.52497,-0.66921 -0.83879,-0.229921 -1.81413,-0.539823 -2.16731,-0.68833 -0.35318,-0.148495 -1.07531,-0.360772 -1.60507,-0.471806 -0.52976,-0.111035 -1.61347,-0.346579 -2.40812,-0.523482 -3.51838,-0.776866 -7.18185,-1.61815 -10.91665,-1.896525 -6.46541,-0.75955 -23.35059,-0.371383 -28.89642,0.664042 C 172.6537,90.620792 155.743,97.172381 136.57461,97.511358 123.11002,97.735611 111.69043,95.864561 98.367119,86.086216 94.323775,82.907339 88.372974,75.876287 85.976145,71.445766 84.214663,68.189675 82.866828,66.150685 82.474033,66.145831 Z M 428.96295,77.2697 v 5.16e-4 c -0.27286,-0.02079 -0.4681,0.07575 -0.69246,0.258383 -1.79288,1.459494 -49.79714,45.262711 -49.87293,45.497481 -0.0479,0.14803 1.94084,1.05816 4.41937,2.02313 15.01871,5.84755 32.86673,25.19813 32.86673,31.31488 0,1.21723 -0.60684,1.72714 -2.47014,2.07533 -1.78333,0.33316 -5.18107,-0.29057 -9.08264,-1.66708 -3.17383,-1.11988 -4.20581,-1.87169 -1.803,-1.31362 2.54442,0.59083 6.38835,0.44855 7.09983,-0.26303 0.8437,-0.84367 0.82277,-0.95037 -0.60461,-3.10524 -1.34484,-2.03053 -5.02401,-4.99797 -8.17832,-6.59649 l -1.99316,-1.01028 -0.72708,0.89866 c -1.99035,2.45796 -2.18198,6.97432 -0.47698,11.2484 4.27042,10.7052 18.08709,23.90211 29.48554,28.16314 v -5.1e-4 c 1.65726,0.61953 3.12016,1.13152 3.25045,1.1467 0.27999,0.0231 42.30496,-38.06953 42.4465,-38.47466 0.0532,-0.15232 -1.19974,-1.07747 -2.78484,-2.05569 -3.26905,-2.01715 -8.05144,-6.39669 -10.56111,-9.67176 -1.51932,-1.98271 -6.96918,-10.00002 -8.08013,-11.88713 -0.42518,-0.72174 -0.47198,-0.72255 -1.60714,-0.007 -0.64302,0.40554 1.07412,-1.52905 3.81579,-4.29948 l 4.98471,-5.03742 -1.09968,-3.14451 c -3.12642,-8.9401 -9.35245,-18.971919 -15.49879,-24.972117 -2.28749,-2.233104 -7.09033,-5.895571 -10.33994,-7.884273 -1.3719,-0.839573 -2.0412,-1.201445 -2.49597,-1.2361 z m -13.83688,16.685286 c 0.11896,0 1.42302,0.782865 2.89801,1.739945 3.54818,2.302323 8.1447,6.058429 11.1063,9.075419 1.31894,1.34357 2.64246,2.44274 2.94142,2.44274 0.29894,0 3.40442,-2.6214 6.90087,-5.82548 3.49646,-3.204082 6.44048,-5.826004 6.54224,-5.826004 0.10173,0 0.94651,1.085677 1.87741,2.412772 1.75885,2.507372 4.83063,8.789472 6.44973,13.189892 l 0.93638,2.54455 -5.58054,5.59087 c -3.06926,3.07513 -5.69599,5.59139 -5.83737,5.59139 -0.14134,0 -0.93983,-1.31094 -1.77405,-2.913 -3.11188,-5.97583 -8.64309,-13.71484 -9.63352,-13.47876 -0.27734,0.0661 -3.95096,3.48714 -8.16384,7.60315 l -7.65948,7.48378 1.02784,0.95395 c 1.82673,1.6935 7.76969,9.30791 9.56014,12.24938 l 1.73994,2.85874 -5.72729,5.71696 -5.7273,5.71748 -4.63124,-6.45128 c -3.14739,-4.26237 -4.97953,-5.4136 -8.73746,-9.38444 -0.0835,-0.0836 1.17459,-1.53755 5.07256,-5.15989 l 7.08639,-6.58617 -2.36471,-2.14508 c -2.94133,-2.667 -10.85662,-8.68817 -13.83585,-10.52494 l -2.23035,-1.3746 8.77362,-7.75094 c 4.82546,-4.262938 8.87125,-7.750434 8.99015,-7.750434 z m -77.49294,17.602024 c -0.0632,0.65401 0.30236,1.69985 0.77308,2.50372 0.76462,1.41883 2.86962,3.57322 5.4193,3.83388 1.45728,0.14902 2.71172,-0.18557 2.40813,-0.59221 -1.14808,-1.53786 -2.32832,-2.67557 -3.32021,-3.65301 -1.35462,-1.29464 -2.82066,-2.05949 -5.2803,-2.09238 z m 118.01036,24.58816 1.01234,1.29398 c 2.48586,3.17668 4.99917,5.78087 7.51479,7.78557 1.49426,1.19081 2.85773,2.16525 3.02927,2.16525 0.87755,0 -0.21908,1.1865 -6.03581,6.53035 l -6.34844,5.8322 -2.9931,-2.11253 c -1.64616,-1.16181 -4.58112,-3.69831 -6.52209,-5.63635 l -3.52898,-3.5233 -0.89038,0.79323 c -0.48973,0.43612 -3.84041,3.28992 -7.44606,6.34225 l -6.55567,5.54953 1.70325,1.73581 c 2.10629,2.14608 7.22841,5.8632 10.45518,7.58714 l 2.42104,1.29346 -5.98568,5.44566 -5.98517,5.4467 -2.58279,-1.10433 c -4.06756,-1.73883 -8.26847,-4.43335 -12.3703,-7.93543 l -1.3503,-1.15342 6.49056,-5.5578 6.49004,-5.55832 -0.92139,-1.12706 c -0.50706,-0.61984 -2.07052,-2.43441 -3.47421,-4.03231 l -2.5523,-2.90525 7.65483,-7.65483 7.65483,-7.65483 0.91984,1.16892 c 0.50574,0.64293 1.19403,1.68054 1.52962,2.30632 0.76184,1.42054 4.53188,6.30176 4.87619,6.31693 0.13997,0.004 3.29985,-2.61131 7.02231,-5.81412 z m -247.48876,18.79782 c 0.0549,0 0.0987,0.0351 0.13229,0.0946 0.507,0.89544 -1.70035,6.62099 -4.16564,9.43508 -2.03517,2.75609 -4.83964,6.32879 -4.53099,9.68107 -1.79969,1.48652 -10.87786,8.73059 -12.26953,10.39574 -1.11288,1.33169 -5.83815,6.67789 -6.7231,8.57519 -0.8177,1.75107 -1.67433,3.65356 -1.96319,5.63738 0,1.13741 0.0817,1.26556 0.80718,1.26556 0.44387,0 1.05814,-0.12777 1.36478,-0.28371 0.30663,-0.15605 0.91865,-0.43003 1.36012,-0.60926 0.44147,-0.17923 1.30844,-0.54295 1.9265,-0.80822 3.05123,-1.30924 8.66924,-3.54596 9.95288,-3.96255 3.39371,-1.10877 7.36485,-2.9941 11.3006,-3.64732 1.08384,0 1.54254,0.39643 1.54254,1.33325 0,1.09542 0.71027,1.87829 3.21066,3.53932 4.30286,2.85838 6.36095,5.8984 4.41472,6.52105 -0.92624,0.29633 -9.0283,0.72681 -21.43177,1.13843 -5.38594,0.17887 -10.89522,0.40521 -12.24318,0.50229 l -2.45101,0.17777 -2.12442,-1.98747 c -1.98911,-1.86915 -3.87218,-4.68617 -5.19503,-7.50135 -1.29679,-2.60125 -1.74563,-3.85446 -1.74563,-4.87671 0,-1.32768 0.0628,-1.41312 1.78439,-2.43913 0.98118,-0.58478 2.64758,-1.60484 3.70313,-2.26704 3.76536,-2.33998 7.7521,-4.69089 11.36158,-7.79694 2.36285,-1.88298 3.27221,-2.67062 5.60379,-4.85345 2.45607,-2.29933 8.20758,-8.16506 10.48463,-10.69289 0.86774,-0.96327 0.69349,-0.52818 2.54093,-2.76004 2.02471,-2.51763 2.96844,-3.83792 3.35277,-3.81062 z"/>
        </g>
        <text xml:space="preserve" style="font-style:normal;font-variant:normal;font-weight:normal;font-stretch:normal;font-size:15.6579px;font-family:'League Spartan';-inkscape-font-specification:'League Spartan, Normal';font-variant-ligatures:normal;font-variant-caps:normal;font-variant-numeric:normal;font-variant-east-asian:normal;white-space:pre;inline-size:126.278;fill:#333333;stroke:none;stroke-width:0.439223;stroke-linejoin:round" x="0.41561496" y="287.46967" id="text299" transform="matrix(5.108643,0,0,5.108643,95.973603,-1187.2845)"><tspan x="0.41561496" y="287.46967" id="tspan18022"><tspan style="font-weight:bold;-inkscape-font-specification:'League Spartan, Bold';letter-spacing:1.79831px" id="tspan18018">SHERBY</tspan><tspan dx="1.7983074" id="tspan18020"> </tspan></tspan></text>
        <text xml:space="preserve" style="font-style:normal;font-variant:normal;font-weight:normal;font-stretch:normal;font-size:15.6579px;font-family:'League Spartan';-inkscape-font-specification:'League Spartan, Normal';font-variant-ligatures:normal;font-variant-caps:normal;font-variant-numeric:normal;font-variant-east-asian:normal;white-space:pre;inline-size:126.278;fill:#008037;stroke:none;stroke-width:0.439223;stroke-linejoin:round;fill-opacity:1" x="0.41561496" y="287.46967" id="text299-0" transform="matrix(5.0128593,0,0,5.0128593,96.757255,-1094.6116)"><tspan x="0.41561496" y="287.46967" id="tspan18028"><tspan style="font-weight:bold;-inkscape-font-specification:'League Spartan, Bold';letter-spacing:1.79831px" id="tspan18024">RACING</tspan><tspan dx="1.7983074" id="tspan18026"> </tspan></tspan></text>
        <text xml:space="preserve" style="font-style:normal;font-variant:normal;font-weight:normal;font-stretch:normal;font-size:15.6579px;font-family:'League Spartan';-inkscape-font-specification:'League Spartan, Normal';font-variant-ligatures:normal;font-variant-caps:normal;font-variant-numeric:normal;font-variant-east-asian:normal;white-space:pre;inline-size:126.278;fill:#333333;stroke:none;stroke-width:0.439223;stroke-linejoin:round" x="0.41561496" y="287.46967" id="text299-0-3" transform="matrix(1.7907632,0,0,1.7907632,156.72921,-134.88283)"><tspan x="0.41561496" y="287.46967" id="tspan18034"><tspan style="font-weight:bold;-inkscape-font-specification:'League Spartan, Bold';letter-spacing:1.79831px" id="tspan18030">FORMULE SAE</tspan><tspan dx="1.798316" id="tspan18032"> </tspan></tspan></text>
      </g>
    </g>
  </g>
</svg>