<?xml version="1.0" encoding="utf-8"?>
<!-- Generator: Adobe Illustrator 22.1.0, SVG Export Plug-In . SVG Version: 6.00 Build 0)  -->
<svg version="1.1" id="Calque_1" xmlns="http://www.w3.org/2000/svg" xmlns:xlink="http://www.w3.org/1999/xlink" x="0px" y="0px"
	 viewBox="0 0 147 102" style="enable-background:new 0 0 147 102;" xml:space="preserve">
<style type="text/css">
	.st0{fill:#000000;}
</style>
<g>
	<path class="st0" d="M29.6,100.9h-4V83.8l-8.4,17.1h-3.9L5,83.8v17.1h-4V79.1h6.2l8.1,16.8l8.2-16.8h6V100.9z"/>
	<path class="st0" d="M51,82.9H38.1v5.4h12.8v3.5H38.1v5.4h13.5v3.8H33.8V79.1H51V82.9z"/>
	<path class="st0" d="M72.7,82.9h-6.4c-4.5,0-7.3,2.4-7.3,7.2c0,4.7,2.8,7.1,7.3,7.1h6.4v3.8h-7.1c-6.5,0-10.9-3.6-10.9-10.9
		c0-7.2,4.4-10.9,10.9-10.9h7.1V82.9z"/>
	<path class="st0" d="M100,82.9h-9.6v18h-4.3v-18h-9.6v-3.8H100V82.9z"/>
	<path class="st0" d="M108.9,79.1h5.6l9.9,21.8h-5l-1.9-4.4h-12l-1.9,4.4H99L108.9,79.1z M106.9,93.4h9.3l-4.6-10.9L106.9,93.4z"/>
	<path class="st0" d="M132.9,97.2h12.6v3.8h-16.9V79.1h4.3V97.2z"/>
</g>
<path class="st0" d="M73.6,35C71.8,30.3,63.3,9.1,63.3,9.1c3.3-1.1,6.8-1.6,10.4-1.6c3.7,0,7.3,0.6,10.7,1.7
	C84.5,9.2,75.3,30.3,73.6,35z"/>
<g>
	<g>
		<path class="st0" d="M61.4,71.8c-4.8-1.9-9-4.8-12.5-8.5l3-16C53.8,52,57.3,62.2,61.4,71.8C61.4,71.8,62.4,72.2,61.4,71.8z"/>
	</g>
	<g>
		<path class="st0" d="M86.3,71.8c4.8-1.9,9-4.8,12.5-8.5l-3-16C94,52,90.5,62.2,86.3,71.8C86.3,71.8,85.3,72.2,86.3,71.8z"/>
	</g>
</g>
<line class="st0" x1="93.5" y1="53.8" x2="93.5" y2="53.8"/>
<path class="st0" d="M121.9,73.1l-13.5-62.4c-1.4-6.6-5.1-9.8-9.2-9.8c-4.2,0-7,2.9-8.9,7.5L89.3,11c0,0,0,0,0,0l-7.3,17.5
	c-4.2,10-6.3,15.3-8,19.9c-1.7-4.6-3.9-9.9-8.1-19.9l-7.2-17.3c0,0,0,0,0,0l-1.1-2.7c-1.9-4.7-4.7-7.5-8.8-7.5
	c-4.1,0-7.8,3.2-9.2,9.8L25.9,73.1h15.9l3-14.9c0,0,0,0,0,0l2-9.9c1.6-8,2.7-13.9,3.5-19.6c1.6,4.8,3.5,9.8,7.4,19.6l7,18
	c2.7,6.8,5.5,7.9,9.2,8h0.1H74c3.7-0.1,6.4-1.2,9.1-8l7-18c3.8-9.8,5.7-14.8,7.4-19.6c0.8,5.6,2,11.6,3.5,19.6l2.1,10.4c0,0,0,0,0,0
	l2.9,14.3H121.9z"/>
</svg>
