<?xml version="1.0" encoding="UTF-8" standalone="no"?>
<svg
   xmlns:dc="http://purl.org/dc/elements/1.1/"
   xmlns:cc="http://creativecommons.org/ns#"
   xmlns:rdf="http://www.w3.org/1999/02/22-rdf-syntax-ns#"
   xmlns:svg="http://www.w3.org/2000/svg"
   xmlns="http://www.w3.org/2000/svg"
   viewBox="311 348 455 122"
   height="816"
   width="1056"
   xml:space="preserve"
   id="svg2"
   version="1.1"><metadata
     id="metadata8"><rdf:RDF><cc:Work
         rdf:about=""><dc:format>image/svg+xml</dc:format><dc:type
           rdf:resource="http://purl.org/dc/dcmitype/StillImage" /></cc:Work></rdf:RDF></metadata><defs
     id="defs6"><clipPath
       id="clipPath18"
       clipPathUnits="userSpaceOnUse"><path
         id="path16"
         d="M 0,612 H 792 V 0 H 0 Z" /></clipPath></defs><g
     transform="matrix(1.3333333,0,0,-1.3333333,0,816)"
     id="g10"><g
       id="g12"><g
         clip-path="url(#clipPath18)"
         id="g14"><g
           transform="translate(297.2109,287.1309)"
           id="g20"><path
             id="path22"
             style="fill:#ee2722;fill-opacity:1;fill-rule:nonzero;stroke:none"
             d="m 0,0 c -2.127,-1.031 -5.434,-2.203 -9.25,-2.203 -12.025,0 -22.186,10.172 -25.761,19.154 -1.015,-1.129 -2.937,-4.582 -2.937,-9.963 0,-7.705 7.209,-14.886 19.155,-14.886 7.552,0 14.172,3.203 18.793,7.898 m -37.312,-0.344 c -1.029,2.127 -2.203,5.436 -2.203,9.248 0,12.03 10.171,22.186 19.156,25.762 -1.131,1.016 -4.582,2.938 -9.967,2.938 -7.701,0 -14.885,-7.208 -14.885,-19.157 0,-7.549 3.201,-14.172 7.899,-18.791 m -0.343,37.311 c 2.128,1.029 5.434,2.203 9.251,2.203 12.025,0 22.183,-10.17 25.76,-19.152 1.015,1.128 2.938,4.578 2.938,9.964 0,7.702 -7.21,14.885 -19.156,14.885 -7.552,0 -14.172,-3.201 -18.793,-7.9 M 7.557,18.518 C 7.557,6.572 0.373,-0.637 -7.33,-0.637 c -5.385,0 -8.834,1.924 -9.965,2.936 8.983,3.578 19.155,13.736 19.155,25.763 0,3.815 -1.173,7.124 -2.205,9.251 C 4.354,32.688 7.557,26.07 7.557,18.518" /></g><g
           transform="translate(386.0703,305.584)"
           id="g24"><path
             id="path26"
             style="fill:#ee2722;fill-opacity:1;fill-rule:nonzero;stroke:none"
             d="m 0,0 c 0,8.809 -3.582,14.295 -10.969,14.295 -7.213,0 -10.97,-5.248 -10.97,-14.295 0,-8.986 3.757,-14.234 10.97,-14.234 C -3.814,-14.234 0,-8.986 0,0 m -29.505,0 c 0,12.066 7.009,20.387 18.536,20.387 11.528,0 18.537,-8.383 18.537,-20.387 0,-12.184 -7.189,-20.326 -18.537,-20.326 -11.467,0 -18.536,8.142 -18.536,20.326" /></g><g
           transform="translate(445.1074,325.4727)"
           id="g28"><path
             id="path30"
             style="fill:#ee2722;fill-opacity:1;fill-rule:nonzero;stroke:none"
             d="m 0,0 v -39.713 h 24.506 v 5.904 H 7.229 v 11.391 h 15.226 v 5.906 H 7.229 V -5.906 H 22.518 L 24.445,0 Z" /></g><g
           transform="translate(422.3301,307.1895)"
           id="g32"><path
             id="path34"
             style="fill:#ee2722;fill-opacity:1;fill-rule:nonzero;stroke:none"
             d="M 0,0 -1.873,-5.736 H 4.18 v -8.897 c -1.537,-0.722 -3.164,-1.207 -5.764,-1.207 -8.395,0 -12.562,5.61 -12.562,14.178 0,8.441 4.226,14.351 12.814,14.351 3.15,0 6.342,-1.013 8.998,-2.681 l 1.984,6.096 c -3.123,1.628 -7.269,2.677 -11.515,2.677 -12.131,0 -19.848,-8.865 -19.848,-20.929 0,-11.401 6.828,-19.784 19.596,-19.784 5.437,0 9.902,1.389 13.449,3.196 L 11.332,0 H 11.33 Z" /></g><g
           transform="translate(334.9277,307.1367)"
           id="g36"><path
             id="path38"
             style="fill:#ee2722;fill-opacity:1;fill-rule:nonzero;stroke:none"
             d="M 0,0 C 6.074,0 7.327,3.797 7.327,6.271 7.327,8.383 6.238,12.424 0,12.424 H -4.723 V 0 Z M -11.781,18.336 H 0.186 c 10.961,0 14.382,-6.803 14.382,-12.107 0,-7.438 -5.632,-10.284 -7.257,-10.891 v -0.252 c 0.777,-0.225 2.44,-1.008 4.595,-4.881 l 6.568,-11.582 h -8.128 l -5.672,10.035 c -2.283,4.102 -3.21,5.43 -6.862,5.43 h -2.535 v -15.465 h -7.058 v 39.713" /></g><g
           transform="translate(491.584,307.1367)"
           id="g40"><path
             id="path42"
             style="fill:#ee2722;fill-opacity:1;fill-rule:nonzero;stroke:none"
             d="m 0,0 c 6.074,0 7.328,3.797 7.328,6.271 0,2.112 -1.09,6.153 -7.328,6.153 H -4.723 V 0 Z M -11.777,18.336 H 0.186 c 10.96,0 14.382,-6.803 14.382,-12.107 0,-7.438 -5.632,-10.284 -7.257,-10.891 v -0.252 c 0.777,-0.225 2.441,-1.008 4.597,-4.881 l 6.567,-11.582 h -8.129 l -5.672,10.035 c -2.283,4.102 -3.209,5.43 -6.862,5.43 h -2.535 v -15.465 h -7.054 v 39.713" /></g><g
           transform="translate(522.8311,315.4102)"
           id="g44"><path
             id="path46"
             style="fill:#ee2722;fill-opacity:1;fill-rule:nonzero;stroke:none"
             d="m 0,0 c 0,3.141 2.981,4.484 6.308,4.484 4.46,0 7.907,-1.481 8.602,-1.744 v 6.638 c -0.556,0.17 -3.619,1.193 -9.28,1.193 -8.679,0 -13.343,-5.124 -13.343,-10.967 0,-5.829 4.731,-8.833 8.67,-10.93 0.899,-0.479 1.989,-1.059 2.846,-1.516 3.264,-1.737 5.662,-3.102 5.662,-6.121 0,-3.433 -3.316,-5.06 -6.629,-5.06 -5.659,0 -9.091,2.068 -9.675,2.386 l -1.916,-5.869 c 0.562,-0.336 5.071,-2.639 11.724,-2.639 8.135,0 14.211,4.766 14.211,11.816 0,5.005 -3.405,8.175 -9.003,11.155 -0.98,0.522 -1.721,0.916 -2.644,1.408 C 2.418,-4.107 0,-2.8 0,0" /></g><g
           transform="translate(547.7334,286.7773)"
           id="g48"><path
             id="path50"
             style="fill:#ee2722;fill-opacity:1;fill-rule:nonzero;stroke:none"
             d="M 0,0 H 0.012 L 1.316,3.396 H 2.277 V -1.023 H 1.659 V 2.672 H 1.647 L 0.181,-1.023 h -0.394 l -1.46,3.695 h -0.013 v -3.695 h -0.598 v 4.419 h 0.961 z" /></g><g
           transform="translate(554.8691,286.4414)"
           id="g52"><path
             id="path54"
             style="fill:#ee2722;fill-opacity:1;fill-rule:nonzero;stroke:none"
             d="m 0,0 c -0.344,-0.469 -0.911,-0.799 -1.686,-0.799 -1.354,0 -2.327,0.967 -2.327,2.328 0,1.379 1.011,2.315 2.353,2.315 0.605,0 1.261,-0.237 1.585,-0.686 L -0.562,2.783 c -0.212,0.299 -0.643,0.518 -1.098,0.518 -1.024,0 -1.679,-0.805 -1.679,-1.772 0,-0.992 0.643,-1.779 1.66,-1.779 0.492,0 0.923,0.205 1.186,0.586 z" /></g></g></g></g></svg>